<svg width="105" height="105" viewBox="0 0 105 105" fill="none" xmlns="http://www.w3.org/2000/svg">
<rect width="105" height="105" rx="20" fill="white"/>
<path d="M16.3608 73.1692L10.3789 95L32.7197 89.135L16.3608 73.1692Z" fill="#1C1B1B"/>
<path d="M52.5 10C29.0294 10 10 29.0294 10 52.5C10 75.9706 29.0294 95 52.5 95C75.9706 95 95 75.9706 95 52.5C95 29.0294 75.9706 10 52.5 10ZM73.4808 67.1731C72.606 69.6275 68.3065 72.0004 66.3798 72.1669C64.4354 72.3475 62.6221 73.0417 53.7431 69.546C43.0331 65.3279 36.2792 54.3558 35.7515 53.6475C35.2238 52.9569 31.466 47.9454 31.466 42.7746C31.466 37.586 34.186 35.0467 35.1387 33.9913C36.1092 32.9358 37.246 32.6738 37.9544 32.6738C38.645 32.6738 39.3533 32.6738 39.966 32.7056C40.724 32.7233 41.5492 32.7729 42.339 34.519C43.2775 36.5944 45.321 41.8006 45.5831 42.3283C45.8452 42.856 46.0294 43.4829 45.6646 44.1735C45.3175 44.8819 45.1369 45.3104 44.6269 45.9373C44.0992 46.5465 43.5219 47.3044 43.0438 47.7648C42.516 48.2925 41.9742 48.8698 42.5833 49.9217C43.1925 50.9735 45.3033 54.4196 48.4306 57.2033C52.4504 60.7946 55.8433 61.8996 56.8988 62.4273C57.9542 62.955 58.5633 62.8735 59.1725 62.1652C59.7994 61.4746 61.8075 59.1017 62.5158 58.0463C63.2065 56.9908 63.9148 57.1715 64.871 57.5185C65.8415 57.8656 71.0158 60.4192 72.0712 60.9469C73.1267 61.4746 73.8173 61.7367 74.0829 62.1652C74.3556 62.6079 74.3556 64.7152 73.4808 67.1731Z" fill="#1C1B1B"/>
</svg>
